<svg width="24" height="24" viewBox="0 0 24 24" fill="none" xmlns="http://www.w3.org/2000/svg">
<path d="M11 8.98438V6.96875H12.9688V8.98438H11ZM6.3125 17.6562C7.90625 19.2188 9.79688 20 11.9844 20C14.1719 20 16.0469 19.2188 17.6094 17.6562C19.2031 16.0625 20 14.1719 20 11.9844C20 9.79688 19.2031 7.92188 17.6094 6.35938C16.0469 4.76562 14.1719 3.96875 11.9844 3.96875C9.79688 3.96875 7.90625 4.76562 6.3125 6.35938C4.75 7.92188 3.96875 9.79688 3.96875 11.9844C3.96875 14.1719 4.75 16.0625 6.3125 17.6562ZM4.90625 4.95312C6.875 2.98438 9.23438 2 11.9844 2C14.7344 2 17.0781 2.98438 19.0156 4.95312C20.9844 6.89062 21.9688 9.23438 21.9688 11.9844C21.9688 14.7344 20.9844 17.0938 19.0156 19.0625C17.0781 21 14.7344 21.9688 11.9844 21.9688C9.23438 21.9688 6.875 21 4.90625 19.0625C2.96875 17.0938 2 14.7344 2 11.9844C2 9.23438 2.96875 6.89062 4.90625 4.95312ZM11 17V11H12.9688V17H11Z" fill="black"/>
</svg>
