<svg width="16" height="20" viewBox="0 0 16 20" fill="none" xmlns="http://www.w3.org/2000/svg">
<path d="M8.49659 3C7.88359 3 7.47492 3.46009 7.47492 4.13928V12.0923L7.53622 13.6771L6.25573 12.085L4.70279 10.4199C4.51889 10.2227 4.2805 10.0767 3.97399 10.0767C3.42229 10.0767 3 10.5076 3 11.1356C3 11.4204 3.10898 11.6907 3.32012 11.9244L7.74056 16.6714C7.93127 16.8758 8.21734 17 8.49659 17C8.77585 17 9.06192 16.8758 9.25263 16.6714L13.6799 11.9244C13.891 11.6907 14 11.4204 14 11.1356C14 10.5076 13.5777 10.0767 13.026 10.0767C12.7195 10.0767 12.4811 10.2227 12.2904 10.4199L10.7375 12.085L9.45697 13.6771L9.52508 12.0923V4.13928C9.52508 3.46009 9.1096 3 8.49659 3Z" fill="black"/>
</svg>
