<svg width="24" height="24" viewBox="0 0 24 24" fill="none" xmlns="http://www.w3.org/2000/svg">
<path d="M11.8594 9H12C12.8125 9 13.5156 9.29688 14.1094 9.89062C14.7031 10.4844 15 11.1875 15 12V12.1875L11.8594 9ZM7.54688 9.79688C7.17188 10.5469 6.98438 11.2812 6.98438 12C6.98438 13.375 7.46875 14.5625 8.4375 15.5625C9.4375 16.5312 10.625 17.0156 12 17.0156C12.7188 17.0156 13.4531 16.8281 14.2031 16.4531L12.6562 14.9062C12.4062 14.9688 12.1875 15 12 15C11.1875 15 10.4844 14.7031 9.89062 14.1094C9.29688 13.5156 9 12.8125 9 12C9 11.8125 9.03125 11.5938 9.09375 11.3438L7.54688 9.79688ZM2.01562 4.26562L3.28125 3L21 20.7188L19.7344 21.9844C19.5781 21.8281 19.0781 21.3438 18.2344 20.5312C17.4219 19.7188 16.7969 19.0938 16.3594 18.6562C15.0156 19.2188 13.5625 19.5 12 19.5C9.53125 19.5 7.29688 18.8125 5.29688 17.4375C3.29688 16.0625 1.85938 14.25 0.984375 12C1.76562 10.0625 3.01562 8.40625 4.73438 7.03125C4.35938 6.65625 3.82812 6.125 3.14062 5.4375C2.48438 4.75 2.10938 4.35938 2.01562 4.26562ZM12 6.98438C11.375 6.98438 10.7656 7.10938 10.1719 7.35938L8.01562 5.20312C9.23438 4.73438 10.5625 4.5 12 4.5C14.4688 4.5 16.6875 5.1875 18.6562 6.5625C20.6562 7.9375 22.0938 9.75 22.9688 12C22.2188 13.8438 21.0781 15.4219 19.5469 16.7344L16.6406 13.8281C16.8906 13.2344 17.0156 12.625 17.0156 12C17.0156 10.625 16.5156 9.45312 15.5156 8.48438C14.5469 7.48438 13.375 6.98438 12 6.98438Z" fill="#007AFF"/>
</svg>
